<?xml version="1.0" encoding="UTF-8" standalone="no"?>
<!DOCTYPE svg PUBLIC "-//W3C//DTD SVG 1.1//EN"
 "http://www.w3.org/Graphics/SVG/1.1/DTD/svg11.dtd">
<!-- Generated by graphviz version 2.36.0 (20140111.2315)
 -->
<!-- Title: models_diagram Pages: 1 -->
<svg width="302pt" height="230pt"
 viewBox="0.00 0.00 302.00 230.00" xmlns="http://www.w3.org/2000/svg" xmlns:xlink="http://www.w3.org/1999/xlink">
<g id="graph0" class="graph" transform="scale(1 1) rotate(0) translate(4 226)">
<title>models_diagram</title>
<polygon fill="white" stroke="none" points="-4,4 -4,-226 298,-226 298,4 -4,4"/>
<!-- _diagram_info -->
<g id="node1" class="node"><title>_diagram_info</title>
<text text-anchor="start" x="8" y="-207.6" font-family="Times,serif" font-size="13.00">Models diagram</text>
<text text-anchor="start" x="8" y="-193.6" font-family="Times,serif" font-size="13.00">Date: Apr 29 2015 &#45; 00:47</text>
<text text-anchor="start" x="8" y="-179.6" font-family="Times,serif" font-size="13.00">Migration version: 20150418221311</text>
<text text-anchor="start" x="8" y="-165.6" font-family="Times,serif" font-size="13.00">Generated by RailRoady 1.3.0</text>
<text text-anchor="start" x="8" y="-151.6" font-family="Times,serif" font-size="13.00">http://railroady.prestonlee.com</text>
</g>
<!-- Artist -->
<g id="node2" class="node"><title>Artist</title>
<ellipse fill="none" stroke="black" cx="263" cy="-183" rx="30.3206" ry="18"/>
<text text-anchor="middle" x="263" y="-179.3" font-family="Times,serif" font-size="14.00">Artist</text>
</g>
<!-- Album -->
<g id="node3" class="node"><title>Album</title>
<ellipse fill="none" stroke="black" cx="231" cy="-90" rx="35.6194" ry="18"/>
<text text-anchor="middle" x="231" y="-86.3" font-family="Times,serif" font-size="14.00">Album</text>
</g>
<!-- Artist&#45;&gt;Album -->
<g id="edge1" class="edge"><title>Artist&#45;&gt;Album</title>
<path fill="none" stroke="#723ed3" d="M254.4,-157.543C250.042,-145.152 244.746,-130.09 240.295,-117.432"/>
<ellipse fill="none" stroke="#723ed3" cx="255.804" cy="-161.536" rx="4.00001" ry="4.00001"/>
<polygon fill="#723ed3" stroke="#723ed3" points="240.258,-117.327 241.186,-106.4 238.599,-112.61 236.94,-107.893 236.94,-107.893 236.94,-107.893 238.599,-112.61 232.695,-109.386 240.258,-117.327 240.258,-117.327"/>
</g>
<!-- Track -->
<g id="node4" class="node"><title>Track</title>
<ellipse fill="none" stroke="black" cx="263" cy="-18" rx="31.2965" ry="18"/>
<text text-anchor="middle" x="263" y="-14.3" font-family="Times,serif" font-size="14.00">Track</text>
</g>
<!-- Artist&#45;&gt;Track -->
<g id="edge2" class="edge"><title>Artist&#45;&gt;Track</title>
<path fill="none" stroke="#e52768" d="M268.893,-156.882C273.372,-134.584 278.255,-101.118 275,-72 274.042,-63.4299 272.238,-54.2228 270.315,-45.9264"/>
<ellipse fill="none" stroke="#e52768" cx="268.039" cy="-160.935" rx="4.00001" ry="4.00001"/>
<polygon fill="#e52768" stroke="#e52768" points="270.266,-45.7294 272.238,-34.9422 269.068,-40.8751 267.869,-36.0209 267.869,-36.0209 267.869,-36.0209 269.068,-40.8751 263.5,-37.0996 270.266,-45.7294 270.266,-45.7294"/>
</g>
<!-- Album&#45;&gt;Track -->
<g id="edge3" class="edge"><title>Album&#45;&gt;Track</title>
<path fill="none" stroke="#09a7e1" d="M241.994,-64.9496C244.98,-58.4184 248.224,-51.3217 251.25,-44.7031"/>
<ellipse fill="none" stroke="#09a7e1" cx="240.247" cy="-68.7731" rx="4.00002" ry="4.00002"/>
<polygon fill="#09a7e1" stroke="#09a7e1" points="251.313,-44.5647 259.564,-37.3409 253.392,-40.0173 255.471,-35.4699 255.471,-35.4699 255.471,-35.4699 253.392,-40.0173 251.378,-33.599 251.313,-44.5647 251.313,-44.5647"/>
</g>
</g>
</svg>
