<?xml version="1.0" encoding="UTF-8" standalone="no"?>
<!DOCTYPE svg PUBLIC "-//W3C//DTD SVG 1.1//EN"
 "http://www.w3.org/Graphics/SVG/1.1/DTD/svg11.dtd">
<!-- Generated by graphviz version 2.36.0 (20140111.2315)
 -->
<!-- Title: models_diagram Pages: 1 -->
<svg width="386pt" height="536pt"
 viewBox="0.00 0.00 386.00 536.00" xmlns="http://www.w3.org/2000/svg" xmlns:xlink="http://www.w3.org/1999/xlink">
<g id="graph0" class="graph" transform="scale(1 1) rotate(0) translate(4 532)">
<title>models_diagram</title>
<polygon fill="white" stroke="none" points="-4,4 -4,-532 382,-532 382,4 -4,4"/>
<!-- _diagram_info -->
<g id="node1" class="node"><title>_diagram_info</title>
<text text-anchor="start" x="8" y="-506.6" font-family="Times,serif" font-size="13.00">Models diagram</text>
<text text-anchor="start" x="8" y="-492.6" font-family="Times,serif" font-size="13.00">Date: Apr 29 2015 &#45; 00:47</text>
<text text-anchor="start" x="8" y="-478.6" font-family="Times,serif" font-size="13.00">Migration version: 20150418221311</text>
<text text-anchor="start" x="8" y="-464.6" font-family="Times,serif" font-size="13.00">Generated by RailRoady 1.3.0</text>
<text text-anchor="start" x="8" y="-450.6" font-family="Times,serif" font-size="13.00">http://railroady.prestonlee.com</text>
</g>
<!-- Artist -->
<g id="node2" class="node"><title>Artist</title>
<path fill="none" stroke="black" d="M244.5,-436.5C244.5,-436.5 351.5,-436.5 351.5,-436.5 357.5,-436.5 363.5,-442.5 363.5,-448.5 363.5,-448.5 363.5,-515.5 363.5,-515.5 363.5,-521.5 357.5,-527.5 351.5,-527.5 351.5,-527.5 244.5,-527.5 244.5,-527.5 238.5,-527.5 232.5,-521.5 232.5,-515.5 232.5,-515.5 232.5,-448.5 232.5,-448.5 232.5,-442.5 238.5,-436.5 244.5,-436.5"/>
<text text-anchor="middle" x="298" y="-512.3" font-family="Times,serif" font-size="14.00">Artist</text>
<polyline fill="none" stroke="black" points="232.5,-504.5 363.5,-504.5 "/>
<text text-anchor="start" x="240.5" y="-489.3" font-family="Times,serif" font-size="14.00">id :integer</text>
<text text-anchor="start" x="240.5" y="-474.3" font-family="Times,serif" font-size="14.00">name :string</text>
<text text-anchor="start" x="240.5" y="-459.3" font-family="Times,serif" font-size="14.00">created_at :datetime</text>
<text text-anchor="start" x="240.5" y="-444.3" font-family="Times,serif" font-size="14.00">updated_at :datetime</text>
</g>
<!-- Album -->
<g id="node3" class="node"><title>Album</title>
<path fill="none" stroke="black" d="M197.5,-248.5C197.5,-248.5 304.5,-248.5 304.5,-248.5 310.5,-248.5 316.5,-254.5 316.5,-260.5 316.5,-260.5 316.5,-387.5 316.5,-387.5 316.5,-393.5 310.5,-399.5 304.5,-399.5 304.5,-399.5 197.5,-399.5 197.5,-399.5 191.5,-399.5 185.5,-393.5 185.5,-387.5 185.5,-387.5 185.5,-260.5 185.5,-260.5 185.5,-254.5 191.5,-248.5 197.5,-248.5"/>
<text text-anchor="middle" x="251" y="-384.3" font-family="Times,serif" font-size="14.00">Album</text>
<polyline fill="none" stroke="black" points="185.5,-376.5 316.5,-376.5 "/>
<text text-anchor="start" x="193.5" y="-361.3" font-family="Times,serif" font-size="14.00">id :integer</text>
<text text-anchor="start" x="193.5" y="-346.3" font-family="Times,serif" font-size="14.00">name :string</text>
<text text-anchor="start" x="193.5" y="-331.3" font-family="Times,serif" font-size="14.00">year :integer</text>
<text text-anchor="start" x="193.5" y="-316.3" font-family="Times,serif" font-size="14.00">cover :string</text>
<text text-anchor="start" x="193.5" y="-301.3" font-family="Times,serif" font-size="14.00">artist_id :integer</text>
<text text-anchor="start" x="193.5" y="-286.3" font-family="Times,serif" font-size="14.00">created_at :datetime</text>
<text text-anchor="start" x="193.5" y="-271.3" font-family="Times,serif" font-size="14.00">updated_at :datetime</text>
<text text-anchor="start" x="193.5" y="-256.3" font-family="Times,serif" font-size="14.00">va :boolean</text>
</g>
<!-- Artist&#45;&gt;Album -->
<g id="edge1" class="edge"><title>Artist&#45;&gt;Album</title>
<path fill="none" stroke="#7d378d" d="M282.14,-428.359C280.32,-422.318 278.432,-416.05 276.525,-409.722"/>
<ellipse fill="none" stroke="#7d378d" cx="283.378" cy="-432.467" rx="4.00001" ry="4.00001"/>
<polygon fill="#7d378d" stroke="#7d378d" points="276.407,-409.329 277.831,-398.456 274.965,-404.542 273.522,-399.754 273.522,-399.754 273.522,-399.754 274.965,-404.542 269.213,-401.052 276.407,-409.329 276.407,-409.329"/>
</g>
<!-- Track -->
<g id="node4" class="node"><title>Track</title>
<path fill="none" stroke="black" d="M229.5,-0.5C229.5,-0.5 366.5,-0.5 366.5,-0.5 372.5,-0.5 378.5,-6.5 378.5,-12.5 378.5,-12.5 378.5,-199.5 378.5,-199.5 378.5,-205.5 372.5,-211.5 366.5,-211.5 366.5,-211.5 229.5,-211.5 229.5,-211.5 223.5,-211.5 217.5,-205.5 217.5,-199.5 217.5,-199.5 217.5,-12.5 217.5,-12.5 217.5,-6.5 223.5,-0.5 229.5,-0.5"/>
<text text-anchor="middle" x="298" y="-196.3" font-family="Times,serif" font-size="14.00">Track</text>
<polyline fill="none" stroke="black" points="217.5,-188.5 378.5,-188.5 "/>
<text text-anchor="start" x="225.5" y="-173.3" font-family="Times,serif" font-size="14.00">id :integer</text>
<text text-anchor="start" x="225.5" y="-158.3" font-family="Times,serif" font-size="14.00">album_id :integer</text>
<text text-anchor="start" x="225.5" y="-143.3" font-family="Times,serif" font-size="14.00">artist_id :integer</text>
<text text-anchor="start" x="225.5" y="-128.3" font-family="Times,serif" font-size="14.00">filepath :string</text>
<text text-anchor="start" x="225.5" y="-113.3" font-family="Times,serif" font-size="14.00">album_tag :string</text>
<text text-anchor="start" x="225.5" y="-98.3" font-family="Times,serif" font-size="14.00">artist_tag :string</text>
<text text-anchor="start" x="225.5" y="-83.3" font-family="Times,serif" font-size="14.00">track_number_tag :integer</text>
<text text-anchor="start" x="225.5" y="-68.3" font-family="Times,serif" font-size="14.00">title_tag :string</text>
<text text-anchor="start" x="225.5" y="-53.3" font-family="Times,serif" font-size="14.00">year_tag :integer</text>
<text text-anchor="start" x="225.5" y="-38.3" font-family="Times,serif" font-size="14.00">genre_tag :string</text>
<text text-anchor="start" x="225.5" y="-23.3" font-family="Times,serif" font-size="14.00">created_at :datetime</text>
<text text-anchor="start" x="225.5" y="-8.3" font-family="Times,serif" font-size="14.00">updated_at :datetime</text>
</g>
<!-- Artist&#45;&gt;Track -->
<g id="edge2" class="edge"><title>Artist&#45;&gt;Track</title>
<path fill="none" stroke="#337ac5" d="M318.209,-428.486C321.028,-419.128 323.479,-409.373 325,-400 334.494,-341.494 329.836,-275.833 321.903,-221.522"/>
<ellipse fill="none" stroke="#337ac5" cx="316.968" cy="-432.421" rx="4.00001" ry="4.00001"/>
<polygon fill="#337ac5" stroke="#337ac5" points="321.886,-221.404 324.836,-210.842 321.136,-216.46 320.387,-211.517 320.387,-211.517 320.387,-211.517 321.136,-216.46 315.938,-212.191 321.886,-221.404 321.886,-221.404"/>
</g>
<!-- Album&#45;&gt;Track -->
<g id="edge3" class="edge"><title>Album&#45;&gt;Track</title>
<path fill="none" stroke="#06054f" d="M268.947,-240.522C270.292,-234.341 271.662,-228.041 273.04,-221.711"/>
<ellipse fill="none" stroke="#06054f" cx="268.091" cy="-244.454" rx="4.00001" ry="4.00001"/>
<polygon fill="#06054f" stroke="#06054f" points="273.081,-221.522 279.604,-212.707 274.144,-216.636 275.207,-211.75 275.207,-211.75 275.207,-211.75 274.144,-216.636 270.81,-210.794 273.081,-221.522 273.081,-221.522"/>
</g>
</g>
</svg>
